# xmcd
#
# Track frame offsets: 
#        150
#        36148
#        57231
#        91121
#        112250
#        141242
#        159816
#
# Disc length: 2424 seconds
#
# Revision: 3
# Processed by: cddbd v1.5.2PL0 Copyright (c) Steve Scherf et al.
# Submitted via: ExactAudioCopyFreeDBPlugin 1.0
#
DISCID=55097607
DTITLE=Clarence Wheeler - Doin' What We Wanna
DYEAR=1970
DGENRE=Soul
TTITLE0=Hey Jude
TTITLE1=Sham Time
TTITLE2=Theme from Electric Surfboard
TTITLE3=Right On
TTITLE4=Dreams Bossa Nova
TTITLE5=Doin' What I Wanna
TTITLE6=C.W.
EXTD=
EXTT0=
EXTT1=
EXTT2=
EXTT3=
EXTT4=
EXTT5=
EXTT6=
PLAYORDER=
